<svg width="115" height="43" viewBox="0 0 115 43" fill="none" xmlns="http://www.w3.org/2000/svg">
<path d="M31.7812 22.7578C29.4531 21.6328 27.3672 20.7812 25.5234 20.2031C21.5391 25.0156 19.1875 29.6797 18.4688 34.1953C18.3594 34.9297 18.3047 35.6719 18.3047 36.4219C18.3047 37.1562 18.375 37.8984 18.5156 38.6484C16.9531 39.8047 15.3438 40.6641 13.6875 41.2266C13.1094 41.4297 12.6406 41.5312 12.2812 41.5312C11.9219 41.5312 11.5469 41.4375 11.1562 41.25C10.7812 41.0625 10.4375 40.7734 10.125 40.3828C9.375 39.5078 9 38.3438 9 36.8906C9 35.4375 9.25781 33.9688 9.77344 32.4844C10.3047 31 11.0312 29.5 11.9531 27.9844C13.6875 25.125 16.1875 22.1484 19.4531 19.0547C18.1719 18.9766 16.8984 18.9375 15.6328 18.9375C14.3672 18.9375 13.0469 19.1016 11.6719 19.4297C8.76562 20.1172 7.03125 21.4297 6.46875 23.3672C6.35938 23.7109 6.30469 24.1641 6.30469 24.7266C6.30469 25.2734 6.49219 25.9844 6.86719 26.8594C6.55469 27.4375 5.82812 27.6719 4.6875 27.5625C3.5 27.4531 2.57031 27.1328 1.89844 26.6016C0.632812 25.6016 0 24.5 0 23.2969C0 20.9531 1.64062 19.0703 4.92188 17.6484C7.96875 16.3203 11.6797 15.6562 16.0547 15.6562C18.0078 15.6562 20.1484 15.9062 22.4766 16.4062C28.3359 11.5312 34.3438 7.96094 40.5 5.69531C43.4688 4.60156 46.0938 4.05469 48.375 4.05469C49.4375 4.05469 50.2266 4.29687 50.7422 4.78125C51.2734 5.25 51.5391 5.85156 51.5391 6.58594C51.5391 7.30469 51.3438 8.20312 50.9531 9.28125C50.5781 10.3594 50.1016 11.5625 49.5234 12.8906C48.9453 14.2031 48.3203 15.6172 47.6484 17.1328C46.9922 18.6484 46.375 20.1953 45.7969 21.7734C44.4531 25.4453 43.7812 28.5547 43.7812 31.1016C43.7812 32.9609 44.6016 33.8906 46.2422 33.8906C46.7109 33.8906 47.2266 33.7734 47.7891 33.5391C48.0859 33.7422 48.3281 34.0156 48.5156 34.3594C48.7031 34.6875 48.7969 34.9766 48.7969 35.2266C48.7969 35.4766 48.6953 35.8359 48.4922 36.3047C48.3047 36.7734 48.0312 37.25 47.6719 37.7344C47.3125 38.2031 46.875 38.6562 46.3594 39.0938C45.8594 39.5312 45.3047 39.9219 44.6953 40.2656C42.4141 41.5625 39.9453 41.7578 37.2891 40.8516C35.0859 40.1172 33.5156 38.6016 32.5781 36.3047C32.1094 35.1172 31.875 33.7656 31.875 32.25C31.875 30.7344 32.1094 29.3125 32.5781 27.9844C33.0469 26.6406 33.6562 25.3281 34.4062 24.0469C35.1719 22.75 36.0391 21.5 37.0078 20.2969C37.9922 19.0938 38.9922 17.9453 40.0078 16.8516C41.0391 15.7422 42.0391 14.7031 43.0078 13.7344C43.9922 12.7656 44.8594 11.8672 45.6094 11.0391C47.3125 9.21094 48.1641 7.95312 48.1641 7.26562C48.1641 6.90625 47.8359 6.72656 47.1797 6.72656C44.3359 6.72656 41.0938 7.78906 37.4531 9.91406C33.9375 11.9766 30.6406 14.6406 27.5625 17.9062C30.0469 18.7969 31.5547 19.6016 32.0859 20.3203C32.6953 21.1328 32.5938 21.9453 31.7812 22.7578ZM53.4844 34.8984C53.4844 34.0547 53.7266 33.2578 54.2109 32.5078C54.7109 31.7422 55.3672 30.9922 56.1797 30.2578C56.9922 29.5078 57.9219 28.75 58.9688 27.9844C60.0312 27.2188 61.125 26.3906 62.25 25.5C63.375 24.6094 64.4922 23.6484 65.6016 22.6172C66.7266 21.5703 67.75 20.3984 68.6719 19.1016C70.7656 16.1953 72.0234 12.9687 72.4453 9.42188C67.6016 9.85938 64.3672 10.3047 62.7422 10.7578C61.1172 11.1953 59.8906 11.7109 59.0625 12.3047C58.25 12.8984 57.8438 13.5625 57.8438 14.2969C57.8438 15.0312 57.8984 15.6328 58.0078 16.1016C58.1328 16.5547 58.2656 16.9688 58.4062 17.3438C58.5469 17.7188 58.6719 18.0547 58.7812 18.3516C58.9062 18.6484 58.9688 18.9141 58.9688 19.1484C58.9688 19.5703 58.4375 20.0312 57.375 20.5312C56.4062 20.9844 55.6953 21.2109 55.2422 21.2109C54.8047 21.2109 54.3828 21.0547 53.9766 20.7422C53.5703 20.4141 53.1719 19.9922 52.7812 19.4766C51.8281 18.2109 51.3516 16.9844 51.3516 15.7969C51.3516 14.6094 51.6484 13.6016 52.2422 12.7734C52.8359 11.9453 53.6328 11.2266 54.6328 10.6172C55.6484 10.0078 56.8359 9.5 58.1953 9.09375C59.5547 8.6875 61 8.34375 62.5312 8.0625C64.0625 7.78125 65.6328 7.55469 67.2422 7.38281C68.8672 7.21094 70.4531 7.0625 72 6.9375C73.5469 6.79688 75.0078 6.66406 76.3828 6.53906C77.7734 6.41406 79 6.26562 80.0625 6.09375C82.3594 5.71875 83.5703 5.21875 83.6953 4.59375C83.8203 3.96875 83.9922 3.39063 84.2109 2.85938C84.4297 2.3125 84.6875 1.82812 84.9844 1.40625C85.6406 0.46875 86.3516 0 87.1172 0C87.8828 0 88.5078 0.382812 88.9922 1.14844C89.4609 1.88281 89.6953 2.66406 89.6953 3.49219C89.6953 4.30469 89.5078 4.95312 89.1328 5.4375C88.7578 5.92188 88.2344 6.35156 87.5625 6.72656C86.9062 7.08594 86.1172 7.39844 85.1953 7.66406C84.2734 7.92969 83.2734 8.15625 82.1953 8.34375C80.4922 8.64063 78.1172 8.92188 75.0703 9.1875C75.1016 9.875 75.1172 10.5391 75.1172 11.1797C75.1172 11.8047 75.1016 12.5859 75.0703 13.5234C75.0547 14.4453 74.9844 15.6016 74.8594 16.9922C74.75 18.3828 74.6016 19.7656 74.4141 21.1406C74.2422 22.5156 74.0469 23.8047 73.8281 25.0078C73.3906 27.5078 72.9531 29.2734 72.5156 30.3047C72.0938 31.3359 71.5938 32.3281 71.0156 33.2812C70.4375 34.2344 69.7969 35.1406 69.0938 36C68.4062 36.8594 67.6719 37.6641 66.8906 38.4141C66.1094 39.1484 65.3125 39.7891 64.5 40.3359C62.7812 41.5078 61.2266 42.0938 59.8359 42.0938C58.4609 42.0938 57.0547 41.3047 55.6172 39.7266C54.1953 38.1641 53.4844 36.5547 53.4844 34.8984ZM82.5234 38.9297C81.3359 37.6641 80.4609 36.2266 79.8984 34.6172C79.3359 32.9922 79.0547 31.4922 79.0547 30.1172C79.0547 28.7422 79.125 27.9688 79.2656 27.7969C79.4219 27.625 79.5938 27.4766 79.7812 27.3516C80.1094 27.1328 80.5078 26.9609 80.9766 26.8359C82.2578 30.1172 84.625 32.2266 88.0781 33.1641C89.1875 33.4766 90.3047 33.6328 91.4297 33.6328C92.5703 33.6328 93.5781 33.5391 94.4531 33.3516C95.3438 33.1484 96.1172 32.8359 96.7734 32.4141C98.1953 31.4766 98.9062 30.0625 98.9062 28.1719C98.9062 26.7344 98.3359 25.1328 97.1953 23.3672C96.7109 22.5859 96.1875 21.8125 95.625 21.0469C95.0625 20.2656 94.5391 19.4766 94.0547 18.6797C92.9141 16.8516 92.3438 15.2891 92.3438 13.9922C92.3438 12.6797 92.5234 11.5938 92.8828 10.7344C93.2578 9.85938 93.7656 9.07812 94.4062 8.39062C95.0469 7.6875 95.7969 7.07031 96.6562 6.53906C97.5312 6.00781 98.4766 5.5625 99.4922 5.20312C101.523 4.48437 103.68 4.125 105.961 4.125C108.117 4.125 109.812 4.35156 111.047 4.80469C112.281 5.24219 113.156 5.69531 113.672 6.16406C114.203 6.63281 114.469 7.09375 114.469 7.54688C114.469 8 114.398 8.38281 114.258 8.69531C114.117 8.99219 113.938 9.28906 113.719 9.58594C113.25 10.1953 112.789 10.6563 112.336 10.9688C111.258 9.25 109.461 8.03906 106.945 7.33594C106.133 7.11719 105.273 7.00781 104.367 7.00781C103.477 7.00781 102.586 7.11719 101.695 7.33594C100.805 7.55469 100.023 7.86719 99.3516 8.27344C97.8359 9.14844 97.0781 10.2891 97.0781 11.6953C97.0781 12.4609 97.3438 13.2266 97.875 13.9922C98.4219 14.7578 99.0938 15.5547 99.8906 16.3828C100.703 17.2109 101.578 18.0781 102.516 18.9844C103.453 19.8906 104.32 20.8594 105.117 21.8906C107.008 24.2969 107.953 26.6719 107.953 29.0156C107.953 31.3438 107.516 33.3672 106.641 35.0859C105.766 36.7891 104.586 38.2109 103.102 39.3516C100.133 41.6797 96.3906 42.8438 91.875 42.8438C88.0625 42.8438 84.9453 41.5391 82.5234 38.9297Z" fill="#2C5530"/>
</svg>
